<?xml version="1.0" encoding="UTF-8"?>
<svg width="1602px" height="1434px" viewBox="0 0 1602 1434" version="1.1" xmlns="http://www.w3.org/2000/svg" xmlns:xlink="http://www.w3.org/1999/xlink">
    <!-- Generator: Sketch 49.1 (51147) - http://www.bohemiancoding.com/sketch -->
    <title>Group</title>
    <desc>Created with Sketch.</desc>
    <defs></defs>
    <g id="Page-1" stroke="none" stroke-width="1" fill="none" fill-rule="evenodd">
        <g id="Group" transform="translate(2.000000, 1.000000)">
            <path d="M463.326279,249.930983 C608.198963,299.526378 731.962443,324.324076 834.616717,324.324076 C988.598128,324.324076 1097.48167,317.289754 1238.59305,361.445808 C1379.70443,405.601861 1437.01246,449.328982 1493.7183,508.314417 C1550.42414,567.299852 1556.62196,704.385636 1573.94758,812.114682 C1591.27321,919.843728 1601.47752,1037.01951 1596.19376,1110.74176 C1592.67125,1159.88993 1576.87933,1207.81548 1548.818,1254.5184 C1541.12502,1256.57279 1525.13737,1242.77038 1500.85503,1213.11119 C1464.43153,1168.62241 1427.87554,1021.70644 1427.87554,970.319141" id="Path" stroke="#AA916D" stroke-width="3"></path>
            <path d="M1439.41867,566.133114 C1453.84895,687.206198 1450.17238,776.58123 1428.38894,834.258213 C1395.71378,920.773686 1360.42775,955.627755 1349.04445,986.808531 C1337.66114,1017.98931 1334.90122,1036.34295 1341.89003,1071.19314 C1348.87883,1106.04333 1381.45463,1152.83963 1381.45463,1172.04505 C1381.45463,1191.25047 1333.21198,1292.80899 1326.05756,1324.35247 C1318.90314,1355.89595 1313.08466,1394.72082 1295.76169,1419.1982 C1278.43872,1443.67559 1184.71038,1423.8432 1175.21304,1419.1982 C1165.7157,1414.55321 1164.36549,1378.23143 1182.99127,1364.04404 C1201.61704,1349.85665 1229.29626,1355.62545 1238.97349,1341.68648 C1248.65072,1327.74751 1269.31353,1225.84672 1262.02662,1185.53135 C1254.73971,1145.21598 1223.90284,1109.98488 1175.21304,1021.55383 C1126.52325,933.122787 1105.2532,900.254415 1088.05721,794.130534" id="Path-2" stroke="#AA916D" stroke-width="3"></path>
            <path d="M200.682923,551.658665 C212.275731,594.391965 228.511183,608.551753 246.192976,627.083685 C256.301995,637.678744 285.105898,665.918188 320.464236,710.778242 C358.345117,758.838713 374.067174,818.630003 396.5241,850.918734 C487.215061,981.314858 466.196879,1225.04627 450.905412,1236.71084 C435.613946,1248.37541 414.194806,1246.51937 404.716351,1256.26404 C395.237897,1266.00871 395.530431,1275.10512 404.716351,1286.80281 C413.902272,1298.50051 482.228077,1305.8647 501.433496,1292.47225 C520.638915,1279.07979 553.783307,1215.65057 561.992119,1133.91023 C570.200932,1052.16989 568.986447,856.670976 590.913416,856.670976 C612.840385,856.670976 725.18574,856.946995 795.791464,818.630003 C866.397188,780.313011 956.3353,741.123798 1069.6136,758.838713" id="Path-3" stroke="#AA916D" stroke-width="3"></path>
            <path d="M58.0913787,349.800268 C67.6306039,378.141924 82.0167272,394.531947 89.4692469,424.960309 C96.9217666,455.388671 92.2128782,491.387102 109.513765,508.660386 C121.047689,520.175909 137.599643,522.833055 159.169628,516.631822 C188.081724,526.307217 211.363027,523.650072 229.013538,508.660386 C255.489305,486.175858 270.452157,450.84841 284.195306,434.28424 C297.938455,417.720069 300.055373,420.532961 309.738128,413.422705" id="Path-4" stroke="#AA916D" stroke-width="3"></path>
            <path d="M45.4496971,267.143544 C38.1296666,249.820576 31.7407411,237.675729 26.2829204,230.709003 C18.0961895,220.258914 0.541365303,213.181781 0.541365303,192.347848 C0.541365303,171.513915 -1.79927793,60.9626853 10.2682836,26.5762073 C22.3358452,-7.81027073 26.2829204,-10.4324536 63.3357444,32.5713454 C88.037627,61.2405447 115.264166,103.815594 145.01536,160.296493 C155.364242,160.296493 173.215327,160.296493 198.568615,160.296493 C223.921903,160.296493 245.565493,162.224947 263.499383,166.081856 C314.684393,98.873009 347.401874,58.9643059 361.651828,46.3557466 C383.026759,27.4429077 392.295485,4.48914699 415.105716,70.766889 C423.077803,93.9307026 415.105716,130.425689 415.105716,160.296493 C415.105716,190.167296 414.477526,214.510261 407.034913,222.676843 C397.046696,233.636647 381.919001,252.985596 361.651828,280.723691" id="Path-5" stroke="#AA916D" stroke-width="3"></path>
            <path d="M161.599182,506.31015 C185.091049,506.31015 204.134969,483.231869 204.134969,464.257669 C204.134969,445.283469 181.748552,431.724666 158.256686,431.724666 C134.764819,431.724666 121.054341,442.764624 121.054341,461.738824 C121.054341,480.713024 138.107315,506.31015 161.599182,506.31015 Z" id="Oval" fill="#AA916D"></path>
            <path d="M114.155419,320.320579 C120.480153,320.320579 127.529189,318.654397 127.529189,303.93047 C127.529189,289.206544 120.337163,289.206544 114.155419,289.206544 C107.973676,289.206544 102.703476,295.79867 102.703476,303.93047 C102.703476,312.06227 107.830686,320.320579 114.155419,320.320579 Z" id="Oval-2" fill="#AA916D"></path>
            <path d="M117.844733,290.075803 C126.312942,290.075803 135.497141,294.738575 145.397329,304.064117 C137.75883,314.032133 128.184253,319.214401 116.673597,319.610921" id="Path-7" stroke="#AA916D"></path>
            <path d="M261.394683,335.014315 C267.719416,335.014315 272.846626,329.807958 272.846626,320.290389 C272.846626,310.772819 272.023856,304.052544 261.394683,304.052544 C250.765511,304.052544 249.94274,312.158589 249.94274,320.290389 C249.94274,328.422189 255.06995,335.014315 261.394683,335.014315 Z" id="Oval-3" fill="#AA916D"></path>
            <path d="M262.529498,304.940169 C254.476526,303.584013 244.417167,307.231384 232.351423,315.88228 C241.908214,327.538662 251.451079,333.660242 260.980017,334.24702" id="Path-8" stroke="#AA916D"></path>
        </g>
    </g>
</svg>