<?xml version="1.0" encoding="UTF-8"?>
<svg width="30px" height="30px" viewBox="0 0 30 30" version="1.1" xmlns="http://www.w3.org/2000/svg" xmlns:xlink="http://www.w3.org/1999/xlink">
    <!-- Generator: Sketch 49.1 (51147) - http://www.bohemiancoding.com/sketch -->
    <title>Instagram_simple_icon</title>
    <desc>Created with Sketch.</desc>
    <defs></defs>
    <g id="Page-2" stroke="none" stroke-width="1" fill="none" fill-rule="evenodd">
        <g id="Desktop" transform="translate(-40.000000, -1172.000000)" fill="#FFFFFF" fill-rule="nonzero">
            <g id="Instagram_simple_icon" transform="translate(40.000000, 1172.000000)">
                <path d="M14.9999107,2.70275742 C19.005071,2.70275742 19.4794431,2.71805986 21.0612986,2.79022549 C22.5237722,2.85697274 23.317945,3.101276 23.84656,3.30669795 C24.4980752,3.5471619 25.0874167,3.93058479 25.571257,4.42877813 C26.0694464,4.91262233 26.4528663,5.50196844 26.6933283,6.1534889 C26.8987486,6.6820485 27.1431095,7.47628716 27.2097967,8.93877235 C27.2819617,10.5205214 27.297264,10.9948972 27.297264,15.0002084 C27.297264,19.0055196 27.2819617,19.4797764 27.2097967,21.0616444 C27.1430499,22.5241296 26.8986891,23.3183088 26.6933283,23.8469279 C26.1887017,25.1551036 25.1547253,26.1890883 23.84656,26.6937189 C23.3180045,26.8991408 22.5237722,27.1435036 21.0612986,27.2101913 C19.4798599,27.2823569 19.0054878,27.2976594 14.9999107,27.2976594 C10.9943336,27.2976594 10.5201401,27.2823569 8.93852276,27.2101913 C7.47604918,27.1434441 6.68187637,26.8990813 6.15326142,26.6937189 C5.50174522,26.4532567 4.91240341,26.0698336 4.42856434,25.5716387 C3.93037653,25.0877932 3.54695693,24.4984474 3.30649307,23.8469279 C3.10107275,23.3183683 2.85671189,22.5241296 2.79002471,21.0616444 C2.71785966,19.479955 2.70255733,19.0055196 2.70255733,15.0002084 C2.70255733,10.9948972 2.71785966,10.5206404 2.79002471,8.93877235 C2.85677143,7.47628716 3.10107275,6.68210805 3.30649307,6.1534889 C3.54698194,5.50193597 3.93044356,4.91256787 4.42868342,4.42871858 C4.91252508,3.93052681 5.50186613,3.54710417 6.1533805,3.3066384 C6.68193591,3.10121646 7.47616827,2.85685365 8.93864184,2.79016595 C10.5203783,2.71800032 10.9947504,2.70269787 15.0000298,2.70269787 L14.9999107,2.70275742 Z M15.0000298,5.28844469e-17 C10.9262769,5.28844469e-17 10.4152864,0.0172673522 8.81562782,0.0902665722 C7.21900585,0.163146707 6.12867052,0.416679071 5.17456758,0.787510346 C4.17370017,1.16415484 3.26703577,1.75458865 2.51779813,2.51763949 C1.75458138,3.2668361 1.1639874,4.17351124 0.787206383,5.17443003 C0.416675763,6.12860009 0.163145412,7.21894407 0.0905635662,8.81557872 C0.0172672151,10.41525 0,10.9262446 0,15.0000298 C0,19.073815 0.0172672151,19.5848095 0.0905635662,21.1844808 C0.163443122,22.7811155 0.416973474,23.8714594 0.787801804,24.82557 C1.16444502,25.8264445 1.75487391,26.7331157 2.51791722,27.4823605 C3.26715242,28.2454143 4.17381751,28.8358486 5.17468666,29.2124897 C6.12884915,29.5833209 7.21918447,29.8368533 8.81574691,29.9097334 C10.4156437,29.9827326 10.9264556,30 15.0001489,30 C19.0738422,30 19.5848922,29.9827326 21.1845508,29.9097334 C22.7811728,29.8368533 23.8715081,29.5833209 24.8256111,29.2124897 C26.8404416,28.4332241 28.4332365,26.8404165 29.2124959,24.82557 C29.5833242,23.8713999 29.8368546,22.7810559 29.9097341,21.1844808 C29.9827328,19.5845713 30,19.0737554 30,15.0000298 C30,10.9263041 29.9827328,10.41525 29.9097341,8.81557872 C29.8368546,7.21894407 29.5833242,6.12860009 29.2124959,5.17448957 C28.8358578,4.17361248 28.2454283,3.26694018 27.4823805,2.51769904 C26.7331276,1.75449606 25.8263972,1.16393705 24.8254324,0.787212633 C23.8712699,0.416679071 22.7809346,0.163146707 21.1843126,0.0905642852 C19.584654,0.0172673522 19.0736635,0 14.9999107,0 L15.0000298,5.28844469e-17 Z" id="Shape"></path>
                <path d="M14.6428571,7.14285714 C10.5007215,7.14285714 7.14285714,10.5007215 7.14285714,14.6428571 C7.14285714,18.7849928 10.5007215,22.1428571 14.6428571,22.1428571 C18.7849928,22.1428571 22.1428571,18.7849928 22.1428571,14.6428571 C22.1428571,10.5007215 18.7849928,7.14285714 14.6428571,7.14285714 Z M14.6428571,19.5112334 C11.9541347,19.5112014 9.77451747,17.3315409 9.77453882,14.6428185 C9.77456016,11.9540961 11.954212,9.77447017 14.6429344,9.77448084 C17.3316569,9.77449152 19.5112914,11.9541347 19.5112914,14.6428571 C19.5112594,17.3315965 17.3315965,19.5112334 14.6428571,19.5112334 Z" id="Shape"></path>
                <circle id="Oval" cx="23.2142857" cy="6.78571429" r="1.78571429"></circle>
            </g>
        </g>
    </g>
</svg>