<?xml version="1.0" encoding="UTF-8"?>
<svg width="204px" height="183px" viewBox="0 0 204 183" version="1.1" xmlns="http://www.w3.org/2000/svg" xmlns:xlink="http://www.w3.org/1999/xlink">
    <!-- Generator: Sketch 49.1 (51147) - http://www.bohemiancoding.com/sketch -->
    <title>Group</title>
    <desc>Created with Sketch.</desc>
    <defs></defs>
    <g id="Page-2" stroke="none" stroke-width="1" fill="none" fill-rule="evenodd">
        <g id="Desktop" transform="translate(-410.000000, -14.000000)">
            <g id="Group" transform="translate(412.000000, 16.000000)">
                <path d="M57.9882702,31.2804735 C76.1200204,37.4876569 91.6098176,40.5912485 104.457662,40.5912485 C123.729428,40.5912485 137.356905,39.7108579 155.017903,45.2372726 C172.678902,50.7636873 179.851372,56.2364183 186.948473,63.6188257 C194.045575,71.0012331 194.821272,88.1584025 196.989685,101.641387 C199.158098,115.124371 200.435234,129.789676 199.773937,139.016491 C199.333073,145.167701 197.356612,151.165893 193.844555,157.011064 C192.88173,157.268183 190.880772,155.540724 187.841681,151.828685 C183.283045,146.260627 178.707828,127.873146 178.707828,121.441695" id="Path" stroke="#252627" stroke-width="3"></path>
                <path d="M180.152524,70.8552083 C181.958568,86.0082851 181.49842,97.1941465 178.772082,104.412793 C174.682576,115.240762 170.266302,119.602973 168.841608,123.505448 C167.416913,127.407923 167.071492,129.704999 167.946186,134.066725 C168.82088,138.428451 172.897951,144.28531 172.897951,146.688992 C172.897951,149.092674 166.860073,161.803378 165.964651,165.751248 C165.06923,169.699118 164.341009,174.5583 162.172927,177.621803 C160.004846,180.685306 148.27414,178.203154 147.085487,177.621803 C145.896834,177.040452 145.727846,172.494547 148.058982,170.718903 C150.390118,168.94326 153.85435,169.665263 155.065518,167.920711 C156.276686,166.176159 158.862769,153.422618 157.950766,148.37689 C157.038762,143.331161 153.179329,138.921762 147.085487,127.854047 C140.991646,116.786331 138.329563,112.672643 136.177372,99.390555" id="Path-2" stroke="#252627" stroke-width="3"></path>
                <path d="M25.1167613,69.0436377 C26.567676,74.3919856 28.5996475,76.1641743 30.8126378,78.4835651 C32.0778466,79.809605 35.6828408,83.3439534 40.1081647,88.9584783 C44.8492012,94.9735561 46.8169179,102.456821 49.6275469,106.497964 C60.9781053,122.81788 58.3475443,153.322436 56.4337187,154.782333 C54.5198931,156.242229 51.8391497,156.009934 50.65286,157.229542 C49.4665703,158.449151 49.5031828,159.587624 50.65286,161.051666 C51.8025372,162.515708 60.353952,163.437384 62.757634,161.761232 C65.1613161,160.08508 69.3095503,152.146504 70.3369361,141.916174 C71.3643219,131.685843 71.2123213,107.217894 73.9566228,107.217894 C76.7009243,107.217894 90.7616696,107.25244 99.598431,102.456821 C108.435192,97.6612028 119.691527,92.7564202 133.869036,94.9735561" id="Path-3" stroke="#252627" stroke-width="3"></path>
                <path d="M7.27051047,43.7797582 C8.464406,47.3268992 10.264922,49.3782162 11.1976529,53.1865218 C12.1303838,56.9948275 11.5410361,61.5002631 13.7063535,63.662126 C15.1498985,65.1033679 17.2214823,65.4359268 19.9211048,64.6598025 C23.53964,65.8707406 26.4534452,65.5381817 28.6625204,63.662126 C31.9761332,60.8480424 33.8488307,56.4265845 35.5688744,54.3534718 C37.2889181,52.2803591 37.5538639,52.6324106 38.7657231,51.7425162" id="Path-4" stroke="#252627" stroke-width="3"></path>
                <path d="M5.68832254,33.4347364 C4.77217354,31.2666553 3.97255833,29.7466494 3.2894769,28.8747188 C2.26485476,27.5668228 0.067755357,26.6810739 0.067755357,24.0735729 C0.067755357,21.4660719 -0.22519123,7.629873 1.28514188,3.32618364 C2.79547499,-0.977505724 3.2894769,-1.30568881 7.92687665,4.07651381 C11.0184765,7.66464889 14.4260533,12.9931907 18.1496071,20.0621392 C19.4448363,20.0621392 21.6790147,20.0621392 24.8521421,20.0621392 C28.0252695,20.0621392 30.7341042,20.3034977 32.9786462,20.7862148 C39.3847801,12.3745944 43.4795838,7.37976294 45.2630573,5.80172048 C47.9382677,3.43465679 49.0983085,0.561845681 51.9531559,8.85693229 C52.950914,11.7560329 51.9531559,16.3236157 51.9531559,20.0621392 C51.9531559,23.8006628 51.874534,26.8473418 50.9430429,27.8694421 C49.6929532,29.2411323 47.7996247,31.662778 45.2630573,35.1343793" id="Path-5" stroke="#252627" stroke-width="3"></path>
                <path d="M20.2251792,63.3679787 C23.1653378,63.3679787 25.5488072,60.4795831 25.5488072,58.1048396 C25.5488072,55.7300962 22.7470028,54.0331246 19.8068443,54.0331246 C16.8666857,54.0331246 15.1507311,55.4148465 15.1507311,57.78959 C15.1507311,60.1643334 17.2850207,63.3679787 20.2251792,63.3679787 Z" id="Oval" fill="#252627"></path>
                <path d="M14.2872865,40.0901851 C15.0788677,40.0901851 15.9611001,39.8816517 15.9611001,38.0388574 C15.9611001,36.1960631 15.0609715,36.1960631 14.2872865,36.1960631 C13.5136015,36.1960631 12.8540021,37.0211102 12.8540021,38.0388574 C12.8540021,39.0566045 13.4957054,40.0901851 14.2872865,40.0901851 Z" id="Oval-2" stroke="#979797" fill="#252627"></path>
                <path d="M14.7490279,36.3048565 C15.8088789,36.3048565 16.9583405,36.8884324 18.1974129,38.0555841 C17.2414055,39.3031455 16.0430855,39.9517398 14.6024527,40.0013668" id="Path-7" stroke="#252627"></path>
                <path d="M32.7152294,41.9292009 C33.5068106,41.9292009 34.1485139,41.2775918 34.1485139,40.0864066 C34.1485139,38.8952214 34.0455389,38.0541356 32.7152294,38.0541356 C31.38492,38.0541356 31.281945,39.0686594 31.281945,40.0864066 C31.281945,41.1041538 31.9236483,41.9292009 32.7152294,41.9292009 Z" id="Oval-3" stroke="#979797" fill="#252627"></path>
                <path d="M32.8572589,38.1652277 C31.8493774,37.9954961 30.5903839,38.4519879 29.0802782,39.5347033 C30.2763722,40.9935748 31.4707233,41.75973 32.6633313,41.8331689" id="Path-8" stroke="#252627"></path>
            </g>
        </g>
    </g>
</svg>